<svg width="289" height="176" viewBox="0 0 289 176" fill="none" xmlns="http://www.w3.org/2000/svg">
<g filter="url(#filter0_d_1_2)">
<rect x="8" y="6" width="273" height="160" rx="26" fill="white" shape-rendering="crispEdges"/>
<path d="M58.7 56.956C58.7 60.652 57.92 63.472 56.36 65.416C54.8 67.36 52.448 68.332 49.304 68.332C46.208 68.332 43.82 67.348 42.14 65.38C40.46 63.412 39.62 60.604 39.62 56.956V52.924C39.62 49.276 40.448 46.48 42.104 44.536C43.784 42.568 46.148 41.584 49.196 41.584C52.268 41.584 54.62 42.568 56.252 44.536C57.884 46.48 58.7 49.276 58.7 52.924V56.956ZM54.056 52.888C54.056 51.4 53.912 50.2 53.624 49.288C53.36 48.376 53 47.68 52.544 47.2C52.112 46.696 51.596 46.36 50.996 46.192C50.42 46.024 49.82 45.94 49.196 45.94C48.596 45.94 47.996 46.024 47.396 46.192C46.82 46.36 46.292 46.696 45.812 47.2C45.356 47.704 44.984 48.412 44.696 49.324C44.408 50.236 44.264 51.424 44.264 52.888V56.992C44.264 58.48 44.408 59.68 44.696 60.592C45.008 61.504 45.404 62.212 45.884 62.716C46.364 63.22 46.904 63.556 47.504 63.724C48.104 63.892 48.704 63.976 49.304 63.976C49.928 63.976 50.528 63.892 51.104 63.724C51.68 63.556 52.184 63.232 52.616 62.752C53.048 62.248 53.396 61.54 53.66 60.628C53.924 59.716 54.056 58.504 54.056 56.992V52.888ZM71.3402 54.652C72.0842 53.884 72.6722 53.212 73.1042 52.636C73.5362 52.06 73.8602 51.544 74.0762 51.088C74.2922 50.632 74.4242 50.212 74.4722 49.828C74.5202 49.444 74.5442 49.072 74.5442 48.712V48.424C74.5442 47.728 74.2562 47.104 73.6802 46.552C73.1282 45.976 72.1802 45.688 70.8362 45.688C70.3562 45.688 69.8762 45.736 69.3962 45.832C68.9402 45.928 68.4842 46.108 68.0282 46.372C67.5722 46.636 67.1162 47.008 66.6602 47.488C66.2282 47.968 65.7962 48.58 65.3642 49.324L61.9082 47.056C62.2202 46.504 62.6042 45.904 63.0602 45.256C63.5402 44.608 64.1282 44.02 64.8242 43.492C65.5442 42.94 66.3842 42.484 67.3442 42.124C68.3282 41.764 69.4802 41.584 70.8002 41.584C72.2642 41.584 73.5242 41.764 74.5802 42.124C75.6362 42.484 76.5002 42.976 77.1722 43.6C77.8682 44.2 78.3722 44.908 78.6842 45.724C79.0202 46.516 79.1882 47.356 79.1882 48.244V48.604C79.1882 50.02 78.8642 51.376 78.2162 52.672C77.5922 53.944 76.6682 55.192 75.4442 56.416L67.8122 64.12H80.1602V67.936H61.8002V64.48L71.3402 54.652Z" fill="#ECECEC"/>
<rect x="197" y="36" width="54" height="26" rx="13" fill="#F58220"/>
<path d="M210.134 43.27H214.054C216.173 43.27 217.232 44.0913 217.232 45.734V46.028C217.232 46.252 217.204 46.4713 217.148 46.686C217.101 46.8913 217.013 47.0873 216.882 47.274C216.761 47.4513 216.597 47.61 216.392 47.75C216.187 47.8807 215.935 47.9833 215.636 48.058C216.252 48.1513 216.747 48.3847 217.12 48.758C217.503 49.122 217.694 49.654 217.694 50.354V50.704C217.694 51.5347 217.433 52.188 216.91 52.664C216.387 53.1307 215.58 53.364 214.488 53.364H210.134V43.27ZM211.912 51.88H213.536C213.928 51.88 214.269 51.866 214.558 51.838C214.857 51.8007 215.099 51.7353 215.286 51.642C215.482 51.5393 215.627 51.3993 215.72 51.222C215.813 51.0447 215.86 50.8067 215.86 50.508V50.2C215.86 49.9387 215.813 49.724 215.72 49.556C215.636 49.3787 215.491 49.2387 215.286 49.136C215.081 49.024 214.81 48.9493 214.474 48.912C214.147 48.8653 213.746 48.842 213.27 48.842H211.912V51.88ZM211.912 44.754V47.386H213.228C213.573 47.386 213.881 47.3767 214.152 47.358C214.432 47.3393 214.661 47.288 214.838 47.204C215.025 47.12 215.165 46.994 215.258 46.826C215.361 46.6487 215.412 46.4013 215.412 46.084V45.832C215.412 45.4027 215.244 45.118 214.908 44.978C214.581 44.8287 214.04 44.754 213.284 44.754H211.912ZM223.954 48.814V48.478C223.954 48.2727 223.921 48.0767 223.856 47.89C223.8 47.7033 223.702 47.54 223.562 47.4C223.422 47.26 223.245 47.148 223.03 47.064C222.815 46.98 222.554 46.938 222.246 46.938C221.658 46.938 221.215 47.092 220.916 47.4C220.627 47.708 220.482 48.0813 220.482 48.52V48.814H223.954ZM225.452 52.65C225.079 52.902 224.64 53.1027 224.136 53.252C223.632 53.4013 223.016 53.476 222.288 53.476C221.84 53.476 221.406 53.4153 220.986 53.294C220.566 53.182 220.188 52.9907 219.852 52.72C219.525 52.44 219.259 52.0713 219.054 51.614C218.858 51.1473 218.76 50.5687 218.76 49.878V49.08C218.76 48.4547 218.849 47.918 219.026 47.47C219.213 47.0127 219.465 46.6393 219.782 46.35C220.099 46.0513 220.468 45.832 220.888 45.692C221.317 45.552 221.779 45.482 222.274 45.482C222.759 45.482 223.207 45.552 223.618 45.692C224.038 45.832 224.397 46.0467 224.696 46.336C224.995 46.616 225.228 46.9707 225.396 47.4C225.564 47.82 225.648 48.31 225.648 48.87V50.144H220.482C220.482 50.76 220.645 51.2267 220.972 51.544C221.299 51.852 221.77 52.006 222.386 52.006C222.843 52.006 223.249 51.9593 223.604 51.866C223.959 51.7633 224.332 51.6 224.724 51.376L225.452 52.65ZM229.722 51.978C230.124 51.978 230.441 51.9267 230.674 51.824C230.917 51.712 231.038 51.5067 231.038 51.208V51.124C231.038 50.9933 231.02 50.886 230.982 50.802C230.954 50.7087 230.884 50.6293 230.772 50.564C230.66 50.4987 230.497 50.438 230.282 50.382C230.077 50.326 229.792 50.2607 229.428 50.186C228.962 50.0927 228.56 49.9853 228.224 49.864C227.898 49.7333 227.627 49.5747 227.412 49.388C227.207 49.2013 227.053 48.9773 226.95 48.716C226.857 48.4547 226.81 48.142 226.81 47.778V47.638C226.81 47.3767 226.862 47.12 226.964 46.868C227.076 46.6067 227.249 46.3733 227.482 46.168C227.725 45.9627 228.033 45.7993 228.406 45.678C228.789 45.5473 229.251 45.482 229.792 45.482C230.24 45.482 230.712 45.524 231.206 45.608C231.71 45.692 232.186 45.8833 232.634 46.182L231.878 47.456C231.617 47.2787 231.323 47.1527 230.996 47.078C230.679 47.0033 230.352 46.966 230.016 46.966C229.466 46.966 229.088 47.0313 228.882 47.162C228.677 47.2833 228.574 47.4467 228.574 47.652V47.736C228.574 47.876 228.593 47.988 228.63 48.072C228.668 48.156 228.738 48.2307 228.84 48.296C228.943 48.352 229.088 48.4033 229.274 48.45C229.461 48.4967 229.704 48.548 230.002 48.604C230.488 48.7067 230.908 48.814 231.262 48.926C231.626 49.038 231.92 49.1873 232.144 49.374C232.378 49.5513 232.55 49.78 232.662 50.06C232.774 50.3307 232.83 50.6713 232.83 51.082V51.236C232.83 51.5347 232.76 51.8193 232.62 52.09C232.49 52.3607 232.294 52.5987 232.032 52.804C231.771 53.0093 231.449 53.1727 231.066 53.294C230.684 53.4153 230.25 53.476 229.764 53.476C229.12 53.476 228.509 53.392 227.93 53.224C227.361 53.056 226.89 52.8227 226.516 52.524L227.3 51.18C227.646 51.4133 228.014 51.6047 228.406 51.754C228.798 51.9033 229.237 51.978 229.722 51.978ZM234.702 47.106H233.47V45.65H234.702V43.676H236.466V45.65H238.412V47.106H236.466V51.166C236.466 51.4927 236.531 51.7073 236.662 51.81C236.802 51.9127 236.989 51.964 237.222 51.964C237.399 51.964 237.572 51.95 237.74 51.922C237.917 51.8847 238.109 51.824 238.314 51.74L238.594 53.154C238.435 53.2287 238.216 53.2987 237.936 53.364C237.665 53.4387 237.357 53.476 237.012 53.476C236.573 53.476 236.205 53.4247 235.906 53.322C235.607 53.2193 235.369 53.07 235.192 52.874C235.015 52.678 234.889 52.44 234.814 52.16C234.739 51.8707 234.702 51.544 234.702 51.18V47.106Z" fill="white"/>
<path d="M39.474 91.524H43.786V88.818H46.602V91.524H50.716V93.9H46.602V95.594C46.602 96.0193 46.6313 96.408 46.69 96.76C46.7487 97.112 46.8367 97.4493 46.954 97.772C47.086 98.08 47.2547 98.3807 47.46 98.674C47.6653 98.9673 47.9147 99.2753 48.208 99.598C48.3987 99.818 48.6187 100.06 48.868 100.324C49.132 100.573 49.4033 100.837 49.682 101.116C49.9607 101.38 50.2393 101.651 50.518 101.93C50.8113 102.194 51.0973 102.451 51.376 102.7L49.594 104.548C49.1247 104.108 48.6553 103.661 48.186 103.206C47.7167 102.737 47.2767 102.289 46.866 101.864C46.426 101.409 46.0593 101.021 45.766 100.698C45.4873 100.361 45.3113 100.104 45.238 99.928H45.194C45.0913 100.133 44.8787 100.427 44.556 100.808C44.2333 101.189 43.8887 101.571 43.522 101.952C43.1113 102.377 42.686 102.817 42.246 103.272C41.806 103.712 41.278 104.211 40.662 104.768L38.836 102.898C40.0387 101.827 41.124 100.764 42.092 99.708C42.4147 99.3413 42.686 99.004 42.906 98.696C43.126 98.388 43.302 98.08 43.434 97.772C43.566 97.4493 43.654 97.1193 43.698 96.782C43.7567 96.43 43.786 96.034 43.786 95.594V93.9H39.474V91.524ZM55.864 109.168H53.07V88.708H55.864V109.168ZM74.6774 95.968H77.4934V98.388H74.6774V109.168H71.8834V88.708H74.6774V95.968ZM64.2714 104.35C63.3474 104.35 62.5554 104.203 61.8954 103.91C61.2354 103.617 60.6854 103.206 60.2454 102.678C59.8201 102.15 59.5048 101.527 59.2994 100.808C59.1088 100.089 59.0134 99.2973 59.0134 98.432V95.99C59.0134 95.1393 59.1088 94.3547 59.2994 93.636C59.5048 92.9027 59.8201 92.272 60.2454 91.744C60.6854 91.216 61.2354 90.8053 61.8954 90.512C62.5554 90.2187 63.3474 90.072 64.2714 90.072C65.1954 90.072 65.9874 90.2187 66.6474 90.512C67.3074 90.8053 67.8501 91.216 68.2754 91.744C68.7154 92.272 69.0308 92.9027 69.2214 93.636C69.4268 94.3547 69.5294 95.1393 69.5294 95.99V98.432C69.5294 99.2973 69.4268 100.089 69.2214 100.808C69.0308 101.527 68.7154 102.15 68.2754 102.678C67.8501 103.206 67.3074 103.617 66.6474 103.91C65.9874 104.203 65.1954 104.35 64.2714 104.35ZM64.2714 92.514C63.3474 92.514 62.6801 92.8367 62.2694 93.482C61.8734 94.1273 61.6754 95.0733 61.6754 96.32V98.102C61.6754 99.3487 61.8734 100.295 62.2694 100.94C62.6801 101.585 63.3474 101.908 64.2714 101.908C65.1954 101.908 65.8554 101.585 66.2514 100.94C66.6621 100.295 66.8674 99.3487 66.8674 98.102V96.32C66.8674 95.0733 66.6621 94.1273 66.2514 93.482C65.8554 92.8367 65.1954 92.514 64.2714 92.514ZM89.0029 100.896V104.24H96.9889V106.594H78.2449V104.24H86.2309V100.896H80.7749V90.116H83.5469V93.394H91.6869V90.116H94.4589V100.896H89.0029ZM91.6869 98.564V95.748H83.5469V98.564H91.6869ZM102.03 101.974H115.032V109.19H102.03V101.974ZM104.076 100.896C103.299 100.896 102.61 100.815 102.008 100.654C101.407 100.478 100.901 100.243 100.49 99.95C100.08 99.6567 99.7643 99.3047 99.5443 98.894C99.3243 98.4833 99.2143 98.0433 99.2143 97.574V96.914C99.2143 96.4447 99.3243 96.012 99.5443 95.616C99.7643 95.2053 100.08 94.8533 100.49 94.56C100.901 94.252 101.407 94.0173 102.008 93.856C102.61 93.68 103.299 93.592 104.076 93.592C104.839 93.592 105.521 93.68 106.122 93.856C106.738 94.0173 107.252 94.252 107.662 94.56C108.073 94.8533 108.388 95.2053 108.608 95.616C108.828 96.012 108.938 96.4447 108.938 96.914V97.574C108.938 98.0433 108.828 98.4833 108.608 98.894C108.388 99.3047 108.073 99.6567 107.662 99.95C107.252 100.243 106.738 100.478 106.122 100.654C105.521 100.815 104.839 100.896 104.076 100.896ZM112.26 97.398H109.796V95.022H112.26V88.708H115.032V101.05H112.26V97.398ZM105.44 90.644H109.972V92.954H98.1803V90.644H102.668V88.444H105.44V90.644ZM104.78 106.924H112.282V104.24H104.78V106.924ZM104.076 95.748C103.328 95.748 102.764 95.8873 102.382 96.166C102.016 96.43 101.832 96.7233 101.832 97.046V97.442C101.832 97.7647 102.016 98.0653 102.382 98.344C102.764 98.608 103.328 98.74 104.076 98.74C104.824 98.74 105.382 98.608 105.748 98.344C106.13 98.0653 106.32 97.7647 106.32 97.442V97.046C106.32 96.7233 106.13 96.43 105.748 96.166C105.382 95.8873 104.824 95.748 104.076 95.748Z" fill="#212121"/>
<path d="M49.152 134.24V119.488H50.736V134.24H49.152ZM39.584 130.368V120.688H41.152V124.176H44.88V120.688H46.448V130.368H39.584ZM41.152 129.008H44.88V125.52H41.152V129.008ZM64.5145 129.248V134.272H54.8505V129.248H56.4185V130.4H62.9465V129.248H64.5145ZM59.6825 126.704C59.0425 126.704 58.4505 126.661 57.9065 126.576C57.3625 126.491 56.8932 126.368 56.4985 126.208C56.1038 126.037 55.7945 125.835 55.5705 125.6C55.3465 125.355 55.2345 125.072 55.2345 124.752V124.32C55.2345 124 55.3465 123.717 55.5705 123.472C55.7945 123.227 56.1038 123.024 56.4985 122.864C56.8932 122.693 57.3625 122.565 57.9065 122.48C58.4505 122.395 59.0425 122.352 59.6825 122.352C60.3225 122.352 60.9145 122.395 61.4585 122.48C62.0025 122.565 62.4718 122.693 62.8665 122.864C63.2612 123.024 63.5705 123.227 63.7945 123.472C64.0185 123.717 64.1305 124 64.1305 124.32V124.752C64.1305 125.072 64.0185 125.355 63.7945 125.6C63.5705 125.835 63.2612 126.037 62.8665 126.208C62.4718 126.368 62.0025 126.491 61.4585 126.576C60.9145 126.661 60.3225 126.704 59.6825 126.704ZM66.4505 127.28V128.592H52.9145V127.28H66.4505ZM54.3065 120.576H58.8825V119.216H60.4665V120.576H65.0585V121.872H54.3065V120.576ZM59.6825 123.616C58.7758 123.616 58.0665 123.696 57.5545 123.856C57.0532 124.005 56.8025 124.208 56.8025 124.464V124.592C56.8025 124.848 57.0532 125.056 57.5545 125.216C58.0665 125.365 58.7758 125.44 59.6825 125.44C60.5892 125.44 61.2932 125.365 61.7945 125.216C62.3065 125.056 62.5625 124.848 62.5625 124.592V124.464C62.5625 124.208 62.3065 124.005 61.7945 123.856C61.2932 123.696 60.5892 123.616 59.6825 123.616ZM62.9465 132.928V131.696H56.4185V132.928H62.9465ZM71.301 120.016C71.909 120.016 72.4423 120.117 72.901 120.32C73.3597 120.523 73.7437 120.789 74.053 121.12C74.373 121.44 74.6077 121.803 74.757 122.208C74.917 122.613 74.997 123.013 74.997 123.408V124.224C74.997 124.619 74.917 125.019 74.757 125.424C74.6077 125.829 74.373 126.197 74.053 126.528C73.7437 126.848 73.3597 127.109 72.901 127.312C72.4423 127.515 71.909 127.616 71.301 127.616C70.693 127.616 70.1597 127.515 69.701 127.312C69.2423 127.109 68.853 126.848 68.533 126.528C68.2237 126.197 67.989 125.829 67.829 125.424C67.6797 125.019 67.605 124.619 67.605 124.224V123.408C67.605 123.013 67.6797 122.613 67.829 122.208C67.989 121.803 68.2237 121.44 68.533 121.12C68.853 120.789 69.2423 120.523 69.701 120.32C70.1597 120.117 70.693 120.016 71.301 120.016ZM78.085 130.016V126.368H75.765V125.008H78.085V122.816H75.765V121.456H78.085V119.488H79.637V130.016H78.085ZM72.005 132.704H79.989V134.08H70.421V129.184H72.005V132.704ZM71.301 126.224C71.653 126.224 71.9623 126.16 72.229 126.032C72.5063 125.904 72.7357 125.744 72.917 125.552C73.109 125.349 73.253 125.12 73.349 124.864C73.445 124.608 73.493 124.352 73.493 124.096V123.536C73.493 123.28 73.445 123.024 73.349 122.768C73.253 122.512 73.109 122.288 72.917 122.096C72.7357 121.893 72.5063 121.728 72.229 121.6C71.9623 121.472 71.653 121.408 71.301 121.408C70.949 121.408 70.6343 121.472 70.357 121.6C70.0903 121.728 69.861 121.893 69.669 122.096C69.4877 122.288 69.349 122.512 69.253 122.768C69.157 123.024 69.109 123.28 69.109 123.536V124.096C69.109 124.352 69.157 124.608 69.253 124.864C69.349 125.12 69.4877 125.349 69.669 125.552C69.861 125.744 70.0903 125.904 70.357 126.032C70.6343 126.16 70.949 126.224 71.301 126.224ZM96.1995 134.24V119.488H97.7835V134.24H96.1995ZM90.1835 126.864C90.1088 127.045 89.9968 127.227 89.8475 127.408C89.7088 127.589 89.5115 127.819 89.2555 128.096C88.9248 128.459 88.5462 128.853 88.1195 129.28C87.6928 129.696 87.2075 130.155 86.6635 130.656L85.6235 129.584C86.5942 128.72 87.4368 127.893 88.1515 127.104C88.3968 126.827 88.5995 126.571 88.7595 126.336C88.9195 126.101 89.0422 125.872 89.1275 125.648C89.2235 125.413 89.2875 125.179 89.3195 124.944C89.3622 124.699 89.3835 124.432 89.3835 124.144V120.544H90.9835V124.144C90.9835 124.464 91.0048 124.752 91.0475 125.008C91.0902 125.253 91.1595 125.493 91.2555 125.728C91.3515 125.952 91.4795 126.181 91.6395 126.416C91.8102 126.64 92.0182 126.885 92.2635 127.152C92.6048 127.525 92.9622 127.893 93.3355 128.256C93.7088 128.608 94.1355 128.997 94.6155 129.424L93.5915 130.512C93.0368 130 92.5675 129.557 92.1835 129.184C91.8102 128.8 91.4688 128.443 91.1595 128.112C90.9355 127.867 90.7328 127.637 90.5515 127.424C90.3808 127.211 90.2635 127.024 90.1995 126.864H90.1835ZM112.922 122.688H109.738C109.738 122.891 109.743 123.083 109.754 123.264C109.775 123.445 109.813 123.621 109.866 123.792C109.93 123.963 110.015 124.128 110.122 124.288C110.239 124.448 110.389 124.603 110.57 124.752C111.349 125.392 112.266 126.027 113.322 126.656L112.442 127.808C111.962 127.509 111.509 127.205 111.082 126.896C110.666 126.587 110.261 126.277 109.866 125.968C109.621 125.776 109.434 125.627 109.306 125.52C109.178 125.403 109.082 125.285 109.018 125.168H109.002C108.949 125.296 108.831 125.461 108.65 125.664C108.469 125.856 108.25 126.059 107.994 126.272C107.653 126.56 107.247 126.88 106.778 127.232C106.309 127.584 105.818 127.931 105.306 128.272L104.362 127.104C104.927 126.752 105.45 126.395 105.93 126.032C106.421 125.659 106.821 125.339 107.13 125.072C107.535 124.709 107.802 124.336 107.93 123.952C108.069 123.568 108.143 123.147 108.154 122.688H104.922V121.328H108.154V119.584H109.738V121.328H112.922V122.688ZM114.714 134.24V119.488H116.282V134.24H114.714ZM113.914 130.944C113.242 131.008 112.554 131.067 111.85 131.12C111.146 131.163 110.399 131.2 109.61 131.232C108.831 131.264 107.994 131.291 107.098 131.312C106.213 131.323 105.247 131.328 104.202 131.328V129.952C104.938 129.963 105.626 129.968 106.266 129.968C106.906 129.957 107.519 129.947 108.106 129.936V127.536H109.722V129.888C110.458 129.856 111.151 129.819 111.802 129.776C112.463 129.733 113.119 129.68 113.77 129.616L113.914 130.944ZM131.068 134.24H129.516V126H127.772V133.52H126.22V119.792H127.772V124.624H129.516V119.488H131.068V134.24ZM124.492 122.272H120.412V128.912H121.228C121.591 128.912 121.932 128.907 122.252 128.896C122.572 128.885 122.887 128.869 123.196 128.848C123.506 128.827 123.826 128.8 124.156 128.768C124.487 128.725 124.839 128.672 125.212 128.608L125.372 129.936C124.956 130 124.567 130.059 124.204 130.112C123.842 130.155 123.484 130.192 123.132 130.224C122.78 130.245 122.423 130.261 122.06 130.272C121.708 130.283 121.324 130.288 120.908 130.288H118.812V120.896H124.492V122.272ZM137.135 122.432C137.306 122.197 137.492 121.973 137.695 121.76C137.908 121.547 138.148 121.365 138.415 121.216C138.692 121.056 138.996 120.933 139.327 120.848C139.668 120.752 140.058 120.704 140.495 120.704C141.028 120.704 141.508 120.773 141.935 120.912C142.362 121.051 142.724 121.248 143.023 121.504C143.332 121.749 143.567 122.053 143.727 122.416C143.898 122.768 143.983 123.157 143.983 123.584V123.744C143.983 123.968 143.956 124.208 143.903 124.464C143.85 124.72 143.754 124.965 143.615 125.2C143.476 125.435 143.29 125.653 143.055 125.856C142.82 126.059 142.527 126.224 142.175 126.352C142.954 126.491 143.535 126.8 143.919 127.28C144.314 127.76 144.511 128.336 144.511 129.008V129.248C144.511 129.675 144.431 130.091 144.271 130.496C144.122 130.891 143.882 131.248 143.551 131.568C143.231 131.877 142.815 132.123 142.303 132.304C141.791 132.496 141.183 132.592 140.479 132.592C139.807 132.592 139.156 132.485 138.527 132.272C137.908 132.069 137.327 131.749 136.783 131.312L137.567 130.048C138.132 130.453 138.634 130.741 139.071 130.912C139.508 131.072 139.978 131.152 140.479 131.152C140.895 131.152 141.258 131.104 141.567 131.008C141.876 130.901 142.132 130.763 142.335 130.592C142.538 130.421 142.687 130.224 142.783 130C142.879 129.765 142.927 129.52 142.927 129.264V129.056C142.927 128.672 142.863 128.357 142.735 128.112C142.618 127.856 142.452 127.653 142.239 127.504C142.026 127.355 141.77 127.248 141.471 127.184C141.183 127.12 140.874 127.088 140.543 127.088H139.119V125.712H140.479C140.842 125.712 141.146 125.659 141.391 125.552C141.636 125.435 141.834 125.285 141.983 125.104C142.132 124.923 142.239 124.715 142.303 124.48C142.378 124.245 142.415 124.005 142.415 123.76V123.632C142.415 123.376 142.362 123.157 142.255 122.976C142.159 122.784 142.026 122.624 141.855 122.496C141.684 122.368 141.482 122.272 141.247 122.208C141.012 122.144 140.767 122.112 140.511 122.112C140.031 122.112 139.615 122.203 139.263 122.384C138.911 122.565 138.58 122.859 138.271 123.264L137.135 122.432ZM154.485 128.944C154.485 129.371 154.41 129.803 154.261 130.24C154.111 130.667 153.877 131.056 153.557 131.408C153.237 131.76 152.821 132.043 152.309 132.256C151.797 132.48 151.183 132.592 150.469 132.592C149.679 132.592 148.965 132.485 148.325 132.272C147.685 132.069 147.093 131.749 146.549 131.312L147.333 130.048C147.887 130.485 148.415 130.779 148.917 130.928C149.429 131.077 149.957 131.152 150.501 131.152C150.917 131.152 151.274 131.088 151.573 130.96C151.882 130.832 152.133 130.667 152.325 130.464C152.527 130.251 152.671 130.011 152.757 129.744C152.853 129.477 152.901 129.211 152.901 128.944V128.752C152.901 127.984 152.698 127.413 152.293 127.04C151.887 126.656 151.317 126.464 150.581 126.464C150.09 126.464 149.653 126.555 149.269 126.736C148.895 126.917 148.581 127.131 148.325 127.376H147.109L147.477 120.88H153.733V122.24H148.917L148.741 125.84C148.997 125.648 149.322 125.483 149.717 125.344C150.122 125.205 150.565 125.136 151.045 125.136C151.589 125.136 152.074 125.232 152.501 125.424C152.927 125.605 153.285 125.861 153.573 126.192C153.871 126.512 154.095 126.891 154.245 127.328C154.405 127.755 154.485 128.213 154.485 128.704V128.944ZM158.122 132.4L165.018 120.88H166.442L159.562 132.4H158.122ZM158.778 120.704C159.589 120.704 160.224 120.944 160.682 121.424C161.152 121.904 161.386 122.565 161.386 123.408V124.08C161.386 124.923 161.152 125.584 160.682 126.064C160.224 126.544 159.589 126.784 158.778 126.784C157.968 126.784 157.328 126.544 156.858 126.064C156.4 125.584 156.17 124.923 156.17 124.08V123.408C156.17 122.565 156.4 121.904 156.858 121.424C157.328 120.944 157.968 120.704 158.778 120.704ZM158.778 125.696C159.685 125.696 160.138 125.147 160.138 124.048V123.44C160.138 122.341 159.685 121.792 158.778 121.792C157.872 121.792 157.418 122.341 157.418 123.44V124.048C157.418 125.147 157.872 125.696 158.778 125.696ZM165.802 126.464C166.613 126.464 167.248 126.704 167.706 127.184C168.176 127.664 168.41 128.325 168.41 129.168V129.84C168.41 130.683 168.176 131.344 167.706 131.824C167.248 132.304 166.613 132.544 165.802 132.544C164.992 132.544 164.352 132.304 163.882 131.824C163.424 131.344 163.194 130.683 163.194 129.84V129.168C163.194 128.325 163.424 127.664 163.882 127.184C164.352 126.704 164.992 126.464 165.802 126.464ZM165.802 131.456C166.709 131.456 167.162 130.907 167.162 129.808V129.2C167.162 128.101 166.709 127.552 165.802 127.552C164.896 127.552 164.442 128.101 164.442 129.2V129.808C164.442 130.907 164.896 131.456 165.802 131.456ZM176.211 134.336V130.656H183.731V129.52H176.131V128.24H185.267V131.904H177.747V133.056H185.683V134.336H176.211ZM178.035 127.376C177.395 127.376 176.851 127.312 176.403 127.184C175.966 127.045 175.614 126.869 175.347 126.656C175.081 126.432 174.889 126.187 174.771 125.92C174.654 125.653 174.595 125.387 174.595 125.12V124.8C174.595 124.533 174.654 124.267 174.771 124C174.889 123.733 175.081 123.493 175.347 123.28C175.614 123.056 175.966 122.88 176.403 122.752C176.851 122.613 177.395 122.544 178.035 122.544C178.675 122.544 179.214 122.613 179.651 122.752C180.099 122.891 180.457 123.067 180.723 123.28C180.99 123.493 181.182 123.733 181.299 124C181.417 124.267 181.475 124.533 181.475 124.8V125.12C181.475 125.387 181.417 125.653 181.299 125.92C181.182 126.187 180.99 126.432 180.723 126.656C180.457 126.869 180.099 127.045 179.651 127.184C179.214 127.312 178.675 127.376 178.035 127.376ZM187.363 124.208H185.267V127.504H183.699V119.488H185.267V122.832H187.363V124.208ZM182.259 122.032H173.795V120.72H177.251V119.2H178.819V120.72H182.259V122.032ZM178.035 126.128C178.398 126.128 178.702 126.091 178.947 126.016C179.203 125.941 179.406 125.851 179.555 125.744C179.705 125.637 179.811 125.525 179.875 125.408C179.95 125.28 179.987 125.163 179.987 125.056V124.864C179.987 124.757 179.955 124.645 179.891 124.528C179.827 124.4 179.715 124.283 179.555 124.176C179.406 124.069 179.203 123.979 178.947 123.904C178.702 123.829 178.398 123.792 178.035 123.792C177.662 123.792 177.353 123.829 177.107 123.904C176.862 123.979 176.659 124.069 176.499 124.176C176.35 124.283 176.243 124.4 176.179 124.528C176.115 124.645 176.083 124.757 176.083 124.864V125.056C176.083 125.163 176.115 125.28 176.179 125.408C176.254 125.525 176.366 125.637 176.515 125.744C176.665 125.851 176.862 125.941 177.107 126.016C177.363 126.091 177.673 126.128 178.035 126.128ZM192.614 132.704H200.55V134.08H191.03V129.184H192.614V132.704ZM198.678 130.016V119.488H200.246V130.016H198.678ZM194.518 123.52C194.518 123.275 194.475 123.029 194.39 122.784C194.305 122.539 194.171 122.32 193.99 122.128C193.819 121.925 193.595 121.765 193.318 121.648C193.051 121.52 192.726 121.456 192.342 121.456C191.958 121.456 191.627 121.52 191.35 121.648C191.073 121.765 190.843 121.925 190.662 122.128C190.491 122.32 190.363 122.539 190.278 122.784C190.203 123.029 190.166 123.275 190.166 123.52V124.224C190.166 124.469 190.209 124.715 190.294 124.96C190.379 125.205 190.507 125.429 190.678 125.632C190.859 125.824 191.083 125.984 191.35 126.112C191.627 126.229 191.958 126.288 192.342 126.288C192.726 126.288 193.051 126.229 193.318 126.112C193.595 125.984 193.819 125.824 193.99 125.632C194.171 125.429 194.305 125.205 194.39 124.96C194.475 124.715 194.518 124.469 194.518 124.224V123.52ZM188.646 123.456C188.646 123.093 188.721 122.715 188.87 122.32C189.019 121.915 189.249 121.547 189.558 121.216C189.867 120.885 190.251 120.613 190.71 120.4C191.169 120.187 191.713 120.08 192.342 120.08C192.961 120.08 193.499 120.187 193.958 120.4C194.427 120.613 194.817 120.885 195.126 121.216C195.435 121.547 195.665 121.915 195.814 122.32C195.963 122.715 196.038 123.093 196.038 123.456V124.288C196.038 124.651 195.963 125.035 195.814 125.44C195.665 125.835 195.435 126.197 195.126 126.528C194.817 126.859 194.427 127.131 193.958 127.344C193.499 127.557 192.961 127.664 192.342 127.664C191.713 127.664 191.169 127.557 190.71 127.344C190.251 127.131 189.867 126.859 189.558 126.528C189.249 126.197 189.019 125.835 188.87 125.44C188.721 125.035 188.646 124.651 188.646 124.288V123.456Z" fill="#757575"/>
</g>
<defs>
<filter id="filter0_d_1_2" x="0" y="0" width="289" height="176" filterUnits="userSpaceOnUse" color-interpolation-filters="sRGB">
<feFlood flood-opacity="0" result="BackgroundImageFix"/>
<feColorMatrix in="SourceAlpha" type="matrix" values="0 0 0 0 0 0 0 0 0 0 0 0 0 0 0 0 0 0 127 0" result="hardAlpha"/>
<feOffset dy="2"/>
<feGaussianBlur stdDeviation="4"/>
<feComposite in2="hardAlpha" operator="out"/>
<feColorMatrix type="matrix" values="0 0 0 0 0.141176 0 0 0 0 0.176471 0 0 0 0 0.235294 0 0 0 0.1 0"/>
<feBlend mode="normal" in2="BackgroundImageFix" result="effect1_dropShadow_1_2"/>
<feBlend mode="normal" in="SourceGraphic" in2="effect1_dropShadow_1_2" result="shape"/>
</filter>
</defs>
</svg>
