<svg width="289" height="176" viewBox="0 0 289 176" fill="none" xmlns="http://www.w3.org/2000/svg">
<g filter="url(#filter0_d_315_4125)">
<rect x="8" y="6" width="273" height="160" rx="26" fill="white" shape-rendering="crispEdges"/>
<path d="M58.7 56.956C58.7 60.652 57.92 63.472 56.36 65.416C54.8 67.36 52.448 68.332 49.304 68.332C46.208 68.332 43.82 67.348 42.14 65.38C40.46 63.412 39.62 60.604 39.62 56.956V52.924C39.62 49.276 40.448 46.48 42.104 44.536C43.784 42.568 46.148 41.584 49.196 41.584C52.268 41.584 54.62 42.568 56.252 44.536C57.884 46.48 58.7 49.276 58.7 52.924V56.956ZM54.056 52.888C54.056 51.4 53.912 50.2 53.624 49.288C53.36 48.376 53 47.68 52.544 47.2C52.112 46.696 51.596 46.36 50.996 46.192C50.42 46.024 49.82 45.94 49.196 45.94C48.596 45.94 47.996 46.024 47.396 46.192C46.82 46.36 46.292 46.696 45.812 47.2C45.356 47.704 44.984 48.412 44.696 49.324C44.408 50.236 44.264 51.424 44.264 52.888V56.992C44.264 58.48 44.408 59.68 44.696 60.592C45.008 61.504 45.404 62.212 45.884 62.716C46.364 63.22 46.904 63.556 47.504 63.724C48.104 63.892 48.704 63.976 49.304 63.976C49.928 63.976 50.528 63.892 51.104 63.724C51.68 63.556 52.184 63.232 52.616 62.752C53.048 62.248 53.396 61.54 53.66 60.628C53.924 59.716 54.056 58.504 54.056 56.992V52.888ZM72.1322 67.936V47.164L66.2282 50.548L63.9962 46.804L72.6722 41.98H76.7402V67.936H72.1322Z" fill="#ECECEC"/>
<rect x="199" y="36" width="52" height="26" rx="13" fill="#F58220"/>
<path d="M218.112 48.842H213.926V53.364H212.134V43.27H213.926V47.358H218.112V43.27H219.904V53.364H218.112V48.842ZM225.935 43.116C226.504 43.116 227.046 43.2 227.559 43.368C228.082 43.5267 228.539 43.7833 228.931 44.138C229.323 44.4833 229.631 44.9313 229.855 45.482C230.088 46.0327 230.205 46.7 230.205 47.484V49.15C230.205 49.9433 230.088 50.62 229.855 51.18C229.631 51.7307 229.323 52.1787 228.931 52.524C228.548 52.8693 228.096 53.1213 227.573 53.28C227.06 53.4387 226.514 53.518 225.935 53.518C225.356 53.518 224.806 53.4387 224.283 53.28C223.77 53.1213 223.317 52.8693 222.925 52.524C222.542 52.1787 222.234 51.7307 222.001 51.18C221.777 50.62 221.665 49.9433 221.665 49.15V47.484C221.665 46.7 221.777 46.0327 222.001 45.482C222.234 44.9313 222.547 44.4833 222.939 44.138C223.331 43.7833 223.784 43.5267 224.297 43.368C224.82 43.2 225.366 43.116 225.935 43.116ZM225.935 51.88C226.28 51.88 226.602 51.838 226.901 51.754C227.2 51.6607 227.461 51.502 227.685 51.278C227.909 51.054 228.082 50.7507 228.203 50.368C228.334 49.9853 228.399 49.5047 228.399 48.926V47.708C228.399 47.1293 228.334 46.6487 228.203 46.266C228.082 45.8833 227.909 45.58 227.685 45.356C227.461 45.132 227.2 44.978 226.901 44.894C226.602 44.8007 226.28 44.754 225.935 44.754C225.599 44.754 225.282 44.8007 224.983 44.894C224.684 44.978 224.423 45.132 224.199 45.356C223.975 45.58 223.798 45.8833 223.667 46.266C223.536 46.6487 223.471 47.1293 223.471 47.708V48.926C223.471 49.5047 223.536 49.9853 223.667 50.368C223.798 50.7507 223.975 51.054 224.199 51.278C224.423 51.502 224.684 51.6607 224.983 51.754C225.282 51.838 225.599 51.88 225.935 51.88ZM238.576 43.27V44.782H235.622V53.364H233.83V44.782H230.862V43.27H238.576Z" fill="white"/>
<path d="M42.18 101.072H54.874V109.168H42.18V101.072ZM44.93 106.858H52.124V103.382H44.93V106.858ZM54.874 93.108H57.558V95.528H54.874V100.148H52.102V88.708H54.874V93.108ZM44.314 99.334C43.4927 99.334 42.7593 99.2093 42.114 98.96C41.4833 98.696 40.9407 98.3587 40.486 97.948C40.046 97.5227 39.7087 97.0387 39.474 96.496C39.2393 95.9387 39.122 95.3593 39.122 94.758V93.966C39.122 93.3793 39.2393 92.8073 39.474 92.25C39.7087 91.6927 40.046 91.2087 40.486 90.798C40.9407 90.3727 41.4833 90.0353 42.114 89.786C42.7593 89.522 43.4927 89.39 44.314 89.39C45.1207 89.39 45.8467 89.522 46.492 89.786C47.1373 90.0353 47.68 90.3727 48.12 90.798C48.5747 91.2087 48.9193 91.6927 49.154 92.25C49.3887 92.8073 49.506 93.3793 49.506 93.966V94.758C49.506 95.3593 49.3887 95.9387 49.154 96.496C48.9193 97.0387 48.5747 97.5227 48.12 97.948C47.68 98.3587 47.1373 98.696 46.492 98.96C45.8467 99.2093 45.1207 99.334 44.314 99.334ZM44.314 91.744C43.9033 91.744 43.5367 91.81 43.214 91.942C42.906 92.074 42.642 92.25 42.422 92.47C42.202 92.69 42.0333 92.9393 41.916 93.218C41.8133 93.482 41.762 93.7533 41.762 94.032V94.692C41.762 94.9707 41.8133 95.2493 41.916 95.528C42.0333 95.792 42.202 96.034 42.422 96.254C42.642 96.474 42.906 96.65 43.214 96.782C43.5367 96.914 43.9033 96.98 44.314 96.98C44.7247 96.98 45.084 96.914 45.392 96.782C45.7147 96.65 45.986 96.474 46.206 96.254C46.426 96.034 46.5873 95.792 46.69 95.528C46.8073 95.2493 46.866 94.9707 46.866 94.692V94.032C46.866 93.7533 46.8073 93.482 46.69 93.218C46.5873 92.9393 46.426 92.69 46.206 92.47C45.986 92.25 45.7147 92.074 45.392 91.942C45.084 91.81 44.7247 91.744 44.314 91.744ZM69.1994 100.896V104.24H77.1854V106.594H58.4414V104.24H66.4274V100.896H60.9714V90.116H63.7434V93.394H71.8834V90.116H74.6554V100.896H69.1994ZM71.8834 98.564V95.748H63.7434V98.564H71.8834ZM82.2269 101.974H95.2289V109.19H82.2269V101.974ZM84.2729 100.896C83.4955 100.896 82.8062 100.815 82.2049 100.654C81.6035 100.478 81.0975 100.243 80.6869 99.95C80.2762 99.6567 79.9609 99.3047 79.7409 98.894C79.5209 98.4833 79.4109 98.0433 79.4109 97.574V96.914C79.4109 96.4447 79.5209 96.012 79.7409 95.616C79.9609 95.2053 80.2762 94.8533 80.6869 94.56C81.0975 94.252 81.6035 94.0173 82.2049 93.856C82.8062 93.68 83.4955 93.592 84.2729 93.592C85.0355 93.592 85.7175 93.68 86.3189 93.856C86.9349 94.0173 87.4482 94.252 87.8589 94.56C88.2695 94.8533 88.5849 95.2053 88.8049 95.616C89.0249 96.012 89.1349 96.4447 89.1349 96.914V97.574C89.1349 98.0433 89.0249 98.4833 88.8049 98.894C88.5849 99.3047 88.2695 99.6567 87.8589 99.95C87.4482 100.243 86.9349 100.478 86.3189 100.654C85.7175 100.815 85.0355 100.896 84.2729 100.896ZM92.4569 97.398H89.9929V95.022H92.4569V88.708H95.2289V101.05H92.4569V97.398ZM85.6369 90.644H90.1689V92.954H78.3769V90.644H82.8649V88.444H85.6369V90.644ZM84.9769 106.924H92.4789V104.24H84.9769V106.924ZM84.2729 95.748C83.5249 95.748 82.9602 95.8873 82.5789 96.166C82.2122 96.43 82.0289 96.7233 82.0289 97.046V97.442C82.0289 97.7647 82.2122 98.0653 82.5789 98.344C82.9602 98.608 83.5249 98.74 84.2729 98.74C85.0209 98.74 85.5782 98.608 85.9449 98.344C86.3262 98.0653 86.5169 97.7647 86.5169 97.442V97.046C86.5169 96.7233 86.3262 96.43 85.9449 96.166C85.5782 95.8873 85.0209 95.748 84.2729 95.748Z" fill="#212121"/>
<path d="M50.16 128.496V134.224H41.168V128.496H50.16ZM46.24 123.888C46.24 124.208 46.1653 124.555 46.016 124.928C45.8773 125.301 45.6587 125.648 45.36 125.968C45.0613 126.288 44.6773 126.555 44.208 126.768C43.7493 126.971 43.2053 127.072 42.576 127.072C41.9467 127.072 41.3973 126.971 40.928 126.768C40.4693 126.555 40.0907 126.288 39.792 125.968C39.4933 125.648 39.2693 125.301 39.12 124.928C38.9813 124.555 38.912 124.208 38.912 123.888V123.2C38.912 122.88 38.9813 122.533 39.12 122.16C39.2693 121.787 39.4933 121.44 39.792 121.12C40.0907 120.8 40.4693 120.539 40.928 120.336C41.3973 120.123 41.9467 120.016 42.576 120.016C43.2053 120.016 43.7493 120.123 44.208 120.336C44.6773 120.539 45.0613 120.8 45.36 121.12C45.6587 121.44 45.8773 121.787 46.016 122.16C46.1653 122.533 46.24 122.88 46.24 123.2V123.888ZM42.736 132.88H48.592V129.84H42.736V132.88ZM52.256 124.24H50.16V127.776H48.592V119.488H50.16V122.864H52.256V124.24ZM44.72 123.28C44.72 123.067 44.672 122.848 44.576 122.624C44.4907 122.4 44.3573 122.197 44.176 122.016C43.9947 121.835 43.7707 121.685 43.504 121.568C43.2373 121.451 42.928 121.392 42.576 121.392C42.224 121.392 41.9147 121.451 41.648 121.568C41.3813 121.685 41.1573 121.835 40.976 122.016C40.7947 122.197 40.656 122.4 40.56 122.624C40.4747 122.848 40.432 123.067 40.432 123.28V123.808C40.432 124.021 40.4747 124.24 40.56 124.464C40.656 124.688 40.7947 124.891 40.976 125.072C41.1573 125.253 41.3813 125.403 41.648 125.52C41.9147 125.637 42.224 125.696 42.576 125.696C42.928 125.696 43.2373 125.637 43.504 125.52C43.7707 125.403 43.9947 125.253 44.176 125.072C44.3573 124.891 44.4907 124.688 44.576 124.464C44.672 124.24 44.72 124.021 44.72 123.808V123.28ZM61.6025 125.232C61.5492 125.371 61.4158 125.557 61.2025 125.792C60.9998 126.027 60.7758 126.256 60.5305 126.48C60.1892 126.789 59.7998 127.109 59.3625 127.44C58.9358 127.771 58.4985 128.091 58.0505 128.4L57.1225 127.264C57.6345 126.901 58.1252 126.544 58.5945 126.192C59.0638 125.829 59.4372 125.515 59.7145 125.248C59.9065 125.067 60.0665 124.885 60.1945 124.704C60.3332 124.523 60.4398 124.336 60.5145 124.144C60.5998 123.941 60.6585 123.723 60.6905 123.488C60.7332 123.253 60.7545 122.992 60.7545 122.704V121.792H57.6185V120.432H65.3145V121.792H62.3545V122.64C62.3545 123.152 62.4078 123.579 62.5145 123.92C62.6212 124.251 62.8452 124.565 63.1865 124.864C63.5705 125.205 63.9758 125.536 64.4025 125.856C64.8292 126.165 65.2772 126.475 65.7465 126.784L64.8505 127.936C64.4345 127.648 64.0398 127.365 63.6665 127.088C63.2932 126.8 62.9145 126.496 62.5305 126.176C62.2852 125.973 62.0825 125.797 61.9225 125.648C61.7732 125.488 61.6718 125.349 61.6185 125.232H61.6025ZM61.3465 132.704H69.2825V134.08H59.7625V129.104H61.3465V132.704ZM67.4105 130V119.488H68.9785V130H67.4105ZM80.053 127.12C79.4877 127.195 78.9597 127.253 78.469 127.296C77.9783 127.339 77.4343 127.376 76.837 127.408C76.2397 127.429 75.5463 127.445 74.757 127.456C73.9677 127.467 72.997 127.472 71.845 127.472V120.448H78.677V121.808H73.397V126.112C74.2183 126.112 74.9117 126.107 75.477 126.096C76.053 126.085 76.5757 126.069 77.045 126.048C77.5143 126.027 77.9677 126 78.405 125.968C78.8423 125.925 79.3383 125.872 79.893 125.808L80.053 127.12ZM84.901 124.704H82.805V130.016H81.237V119.488H82.805V123.328H84.901V124.704ZM75.381 132.704H83.205V134.08H73.797V129.184H75.381V132.704ZM96.1995 134.24V119.488H97.7835V134.24H96.1995ZM86.6315 130.368V120.688H88.1995V124.176H91.9275V120.688H93.4955V130.368H86.6315ZM88.1995 129.008H91.9275V125.52H88.1995V129.008ZM113.498 126.944V128.288H99.962V126.944H113.498ZM103.498 132.704H111.834V134.08H101.914V129.632H103.498V132.704ZM103.578 120.064V123.904H111.562V125.248H102.01V120.064H103.578ZM120.14 134.336V130.672H128.236V129.584H120.06V128.288H124.172V126.896H118.204V125.584H131.74V126.896H125.772V128.288H129.788V131.936H121.692V133.04H130.22V134.336H120.14ZM129.772 124.576H120.172V119.824H129.772V124.576ZM128.22 121.136H121.724V123.264H128.22V121.136ZM146.143 127.92V129.232H132.607V127.92H138.575V126.496H134.559V122.624H142.559V121.328H134.479V120.032H144.111V123.872H136.111V125.2H144.399V126.496H140.175V127.92H146.143ZM136.143 132.72H144.479V134.096H134.559V130.176H136.143V132.72ZM155.778 127.216C155.703 127.397 155.591 127.584 155.442 127.776C155.292 127.968 155.09 128.203 154.834 128.48C154.503 128.843 154.135 129.232 153.73 129.648C153.324 130.053 152.85 130.507 152.306 131.008L151.266 129.936C151.746 129.499 152.183 129.083 152.578 128.688C152.983 128.293 153.367 127.893 153.73 127.488C153.996 127.2 154.21 126.939 154.37 126.704C154.53 126.469 154.652 126.24 154.738 126.016C154.823 125.792 154.882 125.563 154.914 125.328C154.946 125.093 154.962 124.827 154.962 124.528V123.008H151.666V121.632H154.962V119.536H156.562V121.632H159.73V123.008H156.562V124.528C156.562 124.848 156.578 125.125 156.61 125.36C156.642 125.595 156.7 125.819 156.786 126.032C156.882 126.245 157.015 126.469 157.186 126.704C157.356 126.928 157.586 127.195 157.874 127.504C158.215 127.877 158.562 128.235 158.914 128.576C159.276 128.917 159.698 129.296 160.178 129.712L159.138 130.784C158.594 130.283 158.14 129.856 157.778 129.504C157.415 129.141 157.079 128.795 156.77 128.464C156.546 128.219 156.343 127.989 156.162 127.776C155.98 127.563 155.858 127.376 155.794 127.216H155.778ZM161.634 134.24V119.488H163.218V134.24H161.634ZM167.156 128.4V123.84H175.252V122H167.092V120.656H176.82V125.184H168.724V127.056H177.172V128.4H175.06V130.928H178.788V132.272H165.252V130.928H169.108V128.4H167.156ZM170.66 130.928H173.508V128.4H170.66V130.928ZM190.295 134.24V119.488H191.879V134.24H190.295ZM180.727 130.368V120.688H182.295V124.176H186.023V120.688H187.591V130.368H180.727ZM182.295 129.008H186.023V125.52H182.295V129.008ZM205.721 134.24H204.185V119.488H205.721V124.944H207.881V126.32H205.721V134.24ZM197.961 130.512C198.43 129.957 198.825 129.472 199.145 129.056C199.476 128.629 199.753 128.245 199.977 127.904C200.201 127.563 200.377 127.253 200.505 126.976C200.633 126.688 200.729 126.4 200.793 126.112C200.868 125.813 200.91 125.499 200.921 125.168C200.942 124.837 200.953 124.464 200.953 124.048V122.224H199.129V120.864H202.441V124.08C202.441 124.592 202.43 125.045 202.409 125.44C202.388 125.835 202.34 126.203 202.265 126.544C202.201 126.875 202.094 127.205 201.945 127.536C201.806 127.856 201.609 128.208 201.353 128.592C201.108 128.965 200.798 129.381 200.425 129.84C200.052 130.299 199.598 130.837 199.065 131.456L197.961 130.512ZM193.993 129.152C194.452 128.672 194.841 128.251 195.161 127.888C195.492 127.515 195.764 127.179 195.977 126.88C196.201 126.571 196.372 126.283 196.489 126.016C196.617 125.749 196.713 125.472 196.777 125.184C196.852 124.896 196.894 124.592 196.905 124.272C196.926 123.941 196.937 123.568 196.937 123.152V122.224H194.569V120.864H198.457V123.184C198.457 123.696 198.446 124.149 198.425 124.544C198.404 124.928 198.356 125.291 198.281 125.632C198.217 125.963 198.11 126.283 197.961 126.592C197.812 126.891 197.609 127.216 197.353 127.568C197.108 127.909 196.798 128.288 196.425 128.704C196.052 129.12 195.598 129.6 195.065 130.144L193.993 129.152ZM213.371 126.976C213.297 127.157 213.185 127.344 213.035 127.536C212.886 127.728 212.683 127.963 212.427 128.24C212.097 128.603 211.729 128.992 211.323 129.408C210.918 129.813 210.443 130.267 209.899 130.768L208.859 129.696C209.339 129.259 209.777 128.843 210.171 128.448C210.577 128.053 210.961 127.653 211.323 127.248C211.59 126.96 211.803 126.699 211.963 126.464C212.123 126.229 212.246 126 212.331 125.776C212.417 125.552 212.475 125.323 212.507 125.088C212.539 124.853 212.555 124.587 212.555 124.288V122.192H209.387V120.816H217.243V122.192H214.155V124.288C214.155 124.608 214.171 124.885 214.203 125.12C214.235 125.355 214.294 125.579 214.379 125.792C214.475 126.005 214.609 126.229 214.779 126.464C214.95 126.688 215.179 126.955 215.467 127.264C215.809 127.637 216.155 127.995 216.507 128.336C216.87 128.677 217.291 129.056 217.771 129.472L216.731 130.544C216.187 130.043 215.734 129.616 215.371 129.264C215.009 128.901 214.673 128.555 214.363 128.224C214.139 127.979 213.937 127.749 213.755 127.536C213.574 127.323 213.451 127.136 213.387 126.976H213.371ZM219.243 134.24V119.488H220.827V134.24H219.243ZM223.838 131.232H225.662V133.072H223.838V131.232ZM224.078 129.584L223.854 120.256H225.646L225.422 129.584H224.078Z" fill="#757575"/>
</g>
<defs>
<filter id="filter0_d_315_4125" x="0" y="0" width="289" height="176" filterUnits="userSpaceOnUse" color-interpolation-filters="sRGB">
<feFlood flood-opacity="0" result="BackgroundImageFix"/>
<feColorMatrix in="SourceAlpha" type="matrix" values="0 0 0 0 0 0 0 0 0 0 0 0 0 0 0 0 0 0 127 0" result="hardAlpha"/>
<feOffset dy="2"/>
<feGaussianBlur stdDeviation="4"/>
<feComposite in2="hardAlpha" operator="out"/>
<feColorMatrix type="matrix" values="0 0 0 0 0.141176 0 0 0 0 0.176471 0 0 0 0 0.235294 0 0 0 0.1 0"/>
<feBlend mode="normal" in2="BackgroundImageFix" result="effect1_dropShadow_315_4125"/>
<feBlend mode="normal" in="SourceGraphic" in2="effect1_dropShadow_315_4125" result="shape"/>
</filter>
</defs>
</svg>
