<svg width="197" height="74" viewBox="0 0 197 74" fill="none" xmlns="http://www.w3.org/2000/svg">
<path d="M16.42 60.12V65.02H6.68V66.1H16.86V68.08H4.26V63.14H14V62.08H4.16V60.12H16.42ZM4.98 59.36C4.39333 59.36 3.86 59.2933 3.38 59.16C2.9 59.0267 2.48667 58.8467 2.14 58.62C1.79333 58.3933 1.52667 58.12 1.34 57.8C1.15333 57.48 1.06 57.14 1.06 56.78V56.06C1.06 55.7 1.15333 55.36 1.34 55.04C1.52667 54.72 1.79333 54.4467 2.14 54.22C2.48667 53.9933 2.9 53.8133 3.38 53.68C3.86 53.5467 4.39333 53.48 4.98 53.48C5.56667 53.48 6.1 53.5467 6.58 53.68C7.06 53.8133 7.47333 53.9933 7.82 54.22C8.16667 54.4467 8.43333 54.72 8.62 55.04C8.80667 55.36 8.9 55.7 8.9 56.06V56.78C8.9 57.14 8.80667 57.48 8.62 57.8C8.43333 58.12 8.16667 58.3933 7.82 58.62C7.47333 58.8467 7.06 59.0267 6.58 59.16C6.1 59.2933 5.56667 59.36 4.98 59.36ZM10.56 56.34H9.28V54.22H10.56V49.52H12.92V59.24H10.56V56.34ZM16.42 59.28H14.04V49.28H16.42V59.28ZM3.76 50.96V49.08H6.2V50.96H9.16V53H0.46V50.96H3.76ZM4.98 55.3C4.42 55.3 3.99333 55.4 3.7 55.6C3.40667 55.8 3.26 56.0267 3.26 56.28V56.56C3.26 56.8133 3.40667 57.04 3.7 57.24C3.99333 57.44 4.42 57.54 4.98 57.54C5.54 57.54 5.96667 57.44 6.26 57.24C6.55333 57.04 6.7 56.8133 6.7 56.56V56.28C6.7 56.0267 6.55333 55.8 6.26 55.6C5.96667 55.4 5.54 55.3 4.98 55.3ZM35.4231 63.4V65.54H18.3831V63.4H35.4231ZM26.9631 56.66C26.8565 56.8867 26.6298 57.1333 26.2831 57.4C25.9498 57.6533 25.5298 57.9533 25.0231 58.3C24.4765 58.66 23.8431 59.06 23.1231 59.5C22.4031 59.9267 21.5631 60.4133 20.6031 60.96L19.3631 58.96C20.0965 58.5467 20.8365 58.12 21.5831 57.68C22.3298 57.2267 22.9965 56.8 23.5831 56.4C23.9831 56.1333 24.3098 55.8667 24.5631 55.6C24.8298 55.3333 25.0365 55.0533 25.1831 54.76C25.3431 54.4533 25.4565 54.1267 25.5231 53.78C25.5898 53.4333 25.6231 53.04 25.6231 52.6V50.54H28.1831V52.6C28.1831 53.04 28.2165 53.4333 28.2831 53.78C28.3498 54.1267 28.4565 54.4533 28.6031 54.76C28.7631 55.0533 28.9698 55.3333 29.2231 55.6C29.4898 55.8667 29.8231 56.1333 30.2231 56.4C30.8098 56.8 31.4765 57.2267 32.2231 57.68C32.9698 58.12 33.7098 58.5467 34.4431 58.96L33.2231 60.92C32.2631 60.3733 31.4231 59.8867 30.7031 59.46C29.9831 59.02 29.3498 58.62 28.8031 58.26C28.2965 57.9133 27.8898 57.62 27.5831 57.38C27.2898 57.1267 27.0898 56.8867 26.9831 56.66H26.9631ZM43.9063 55.8H46.0663V49.66H48.4863V66.98H46.0663V57.98H43.6663C43.5196 58.54 43.2996 59.0533 43.0063 59.52C42.7263 59.9867 42.3463 60.46 41.8663 60.94C41.3863 61.4067 40.7996 61.9 40.1063 62.42C39.4129 62.9267 38.5929 63.5 37.6463 64.14L36.2863 62.2C37.0863 61.6667 37.7729 61.1933 38.3463 60.78C38.9329 60.3533 39.4196 59.96 39.8063 59.6C40.2063 59.24 40.5196 58.9067 40.7463 58.6C40.9729 58.28 41.1463 57.96 41.2663 57.64L36.3863 57.8L36.2863 55.64L41.4863 55.54V53.2H36.7863V51.04H43.9063V55.8ZM52.3663 67.88H49.9463V49.28H52.3663V67.88ZM59.4694 63.5C58.616 63.5 57.8827 63.3667 57.2694 63.1C56.6694 62.8333 56.176 62.46 55.7894 61.98C55.4027 61.5 55.116 60.9333 54.9294 60.28C54.756 59.6267 54.6694 58.9067 54.6694 58.12V55.9C54.6694 55.1267 54.756 54.4133 54.9294 53.76C55.116 53.0933 55.4027 52.52 55.7894 52.04C56.176 51.56 56.6694 51.1867 57.2694 50.92C57.8827 50.6533 58.616 50.52 59.4694 50.52C60.296 50.52 61.0094 50.6533 61.6094 50.92C62.2094 51.1733 62.7027 51.5333 63.0894 52C63.476 52.4533 63.7627 53 63.9494 53.64C64.1494 54.2667 64.256 54.9533 64.2694 55.7H67.1494V49.28H69.6894V67.88H67.1494V57.88H64.2694V58.12C64.2694 58.9067 64.176 59.6267 63.9894 60.28C63.816 60.9333 63.536 61.5 63.1494 61.98C62.7627 62.46 62.2627 62.8333 61.6494 63.1C61.0494 63.3667 60.3227 63.5 59.4694 63.5ZM59.4694 52.74C58.616 52.74 58.0027 53.0333 57.6294 53.62C57.2694 54.2067 57.0894 55.0667 57.0894 56.2V57.82C57.0894 58.9533 57.2694 59.8133 57.6294 60.4C58.0027 60.9867 58.616 61.28 59.4694 61.28C60.3227 61.28 60.9294 60.9867 61.2894 60.4C61.6627 59.8133 61.8494 58.9533 61.8494 57.82V56.2C61.8494 55.0667 61.6627 54.2067 61.2894 53.62C60.9294 53.0333 60.3227 52.74 59.4694 52.74ZM92.0525 61.38V67.9H79.7325V61.38H82.2125V62.72H89.5725V61.38H92.0525ZM82.5925 53.76C82.5392 53.88 82.3592 54.06 82.0525 54.3C81.7458 54.5267 81.3392 54.7733 80.8325 55.04C80.4192 55.2667 79.9792 55.4933 79.5125 55.72C79.0592 55.9467 78.6192 56.16 78.1925 56.36L77.1325 54.48C77.6392 54.2533 78.1125 54.0267 78.5525 53.8C78.9925 53.5733 79.4458 53.3267 79.9125 53.06C80.1925 52.9 80.4192 52.7533 80.5925 52.62C80.7658 52.4733 80.8992 52.3133 80.9925 52.14C81.0858 51.9667 81.1458 51.7733 81.1725 51.56C81.2125 51.3333 81.2325 51.06 81.2325 50.74V49.56H83.7925V50.76C83.7925 51.04 83.8058 51.28 83.8325 51.48C83.8592 51.6667 83.9192 51.84 84.0125 52C84.1058 52.16 84.2325 52.3133 84.3925 52.46C84.5525 52.5933 84.7725 52.74 85.0525 52.9C85.4525 53.14 85.8658 53.38 86.2925 53.62C86.7192 53.8467 87.1792 54.0867 87.6725 54.34L86.6325 56.16C86.2725 55.9733 85.8858 55.7733 85.4725 55.56C85.0592 55.3333 84.6792 55.1267 84.3325 54.94C83.8925 54.7 83.5125 54.4733 83.1925 54.26C82.8725 54.0467 82.6792 53.88 82.6125 53.76H82.5925ZM76.6525 56.96C78.1858 56.96 79.5325 56.9533 80.6925 56.94C81.8658 56.9267 82.9125 56.9067 83.8325 56.88C84.7658 56.8533 85.5992 56.82 86.3325 56.78C87.0658 56.74 87.7592 56.6867 88.4125 56.62L88.5925 58.66C87.9925 58.74 87.2925 58.8067 86.4925 58.86C85.7058 58.9 84.7925 58.9333 83.7525 58.96V60.64H81.2525V59C80.5725 59.0133 79.8525 59.02 79.0925 59.02C78.3325 59.02 77.5192 59.02 76.6525 59.02V56.96ZM92.0525 60.54H89.5325V49.28H92.0525V60.54ZM89.5725 65.88V64.68H82.2125V65.88H89.5725ZM101.856 55.38C101.856 55.4733 101.856 55.5667 101.856 55.66C101.856 55.74 101.849 55.82 101.836 55.9H104.076V49.66H106.496V66.98H104.076V58.08H101.516C101.369 58.5467 101.149 59 100.856 59.44C100.576 59.8667 100.202 60.3133 99.7356 60.78C99.269 61.2333 98.6956 61.7267 98.0156 62.26C97.3356 62.78 96.529 63.36 95.5956 64L94.1556 62.08C95.3156 61.3067 96.2423 60.6467 96.9356 60.1C97.629 59.54 98.1556 59.0067 98.5156 58.5C98.8756 57.9933 99.109 57.4667 99.2156 56.92C99.3356 56.3733 99.3956 55.7267 99.3956 54.98V53.26H94.6556V51.08H101.856V55.38ZM110.376 67.88H107.956V49.28H110.376V67.88ZM122.339 63.5C121.485 63.5 120.752 63.3667 120.139 63.1C119.539 62.8333 119.045 62.46 118.659 61.98C118.272 61.5 117.985 60.9333 117.799 60.28C117.625 59.6267 117.539 58.9067 117.539 58.12V55.9C117.539 55.1267 117.625 54.4133 117.799 53.76C117.985 53.0933 118.272 52.52 118.659 52.04C119.045 51.56 119.539 51.1867 120.139 50.92C120.752 50.6533 121.485 50.52 122.339 50.52C123.192 50.52 123.919 50.6533 124.519 50.92C125.132 51.1867 125.632 51.56 126.019 52.04C126.405 52.52 126.685 53.0933 126.859 53.76C127.045 54.4133 127.139 55.1267 127.139 55.9V58.12C127.139 58.9067 127.045 59.6267 126.859 60.28C126.685 60.9333 126.405 61.5 126.019 61.98C125.632 62.46 125.132 62.8333 124.519 63.1C123.919 63.3667 123.192 63.5 122.339 63.5ZM122.339 52.74C121.485 52.74 120.872 53.0333 120.499 53.62C120.139 54.2067 119.959 55.0667 119.959 56.2V57.82C119.959 58.9533 120.139 59.8133 120.499 60.4C120.872 60.9867 121.485 61.28 122.339 61.28C123.192 61.28 123.799 60.9867 124.159 60.4C124.532 59.8133 124.719 58.9533 124.719 57.82V56.2C124.719 55.0667 124.532 54.2067 124.159 53.62C123.799 53.0333 123.192 52.74 122.339 52.74ZM132.259 67.88H129.719V49.28H132.259V67.88ZM146.762 56H148.342V49.28H150.742V67.88H148.342V58.18H146.762V66.98H144.362V49.66H146.762V56ZM139.082 63.28C138.415 63.28 137.822 63.18 137.302 62.98C136.782 62.7667 136.349 62.4933 136.002 62.16C135.655 61.8133 135.389 61.4267 135.202 61C135.029 60.56 134.942 60.1133 134.942 59.66V58.7C134.942 58.2467 135.029 57.8067 135.202 57.38C135.389 56.94 135.655 56.5533 136.002 56.22C136.349 55.8733 136.782 55.6 137.302 55.4C137.822 55.1867 138.415 55.08 139.082 55.08C139.749 55.08 140.335 55.1867 140.842 55.4C141.362 55.6 141.795 55.8733 142.142 56.22C142.502 56.5533 142.769 56.94 142.942 57.38C143.129 57.8067 143.222 58.2467 143.222 58.7V59.66C143.222 60.1133 143.129 60.56 142.942 61C142.769 61.4267 142.502 61.8133 142.142 62.16C141.795 62.4933 141.362 62.7667 140.842 62.98C140.335 63.18 139.749 63.28 139.082 63.28ZM137.822 52.28V49.8H140.282V52.28H143.442V54.36H134.302V52.28H137.822ZM139.082 57.1C138.762 57.1 138.475 57.16 138.222 57.28C137.982 57.3867 137.782 57.5267 137.622 57.7C137.462 57.86 137.342 58.0467 137.262 58.26C137.182 58.46 137.142 58.6533 137.142 58.84V59.52C137.142 59.7067 137.182 59.9067 137.262 60.12C137.342 60.32 137.462 60.5067 137.622 60.68C137.782 60.84 137.982 60.98 138.222 61.1C138.475 61.2067 138.762 61.26 139.082 61.26C139.402 61.26 139.682 61.2067 139.922 61.1C140.175 60.98 140.382 60.84 140.542 60.68C140.702 60.5067 140.822 60.32 140.902 60.12C140.982 59.9067 141.022 59.7067 141.022 59.52V58.84C141.022 58.6533 140.982 58.46 140.902 58.26C140.822 58.0467 140.702 57.86 140.542 57.7C140.382 57.5267 140.175 57.3867 139.922 57.28C139.682 57.16 139.402 57.1 139.082 57.1ZM166.965 56.48H169.525V58.68H166.965V67.88H164.425V49.28H166.965V56.48ZM157.725 63.82C156.978 63.82 156.318 63.7133 155.745 63.5C155.185 63.2733 154.705 62.98 154.305 62.62C153.918 62.2467 153.625 61.8267 153.425 61.36C153.225 60.88 153.125 60.3933 153.125 59.9V58.72C153.125 58.2267 153.225 57.7467 153.425 57.28C153.625 56.8 153.918 56.38 154.305 56.02C154.705 55.6467 155.185 55.3533 155.745 55.14C156.318 54.9133 156.978 54.8 157.725 54.8C158.458 54.8 159.112 54.9133 159.685 55.14C160.258 55.3533 160.738 55.6467 161.125 56.02C161.525 56.38 161.825 56.8 162.025 57.28C162.225 57.7467 162.325 58.2267 162.325 58.72V59.9C162.325 60.3933 162.225 60.88 162.025 61.36C161.825 61.8267 161.525 62.2467 161.125 62.62C160.738 62.98 160.258 63.2733 159.685 63.5C159.112 63.7133 158.458 63.82 157.725 63.82ZM157.725 61.7C158.085 61.7 158.405 61.6467 158.685 61.54C158.965 61.42 159.198 61.2667 159.385 61.08C159.585 60.8933 159.732 60.68 159.825 60.44C159.932 60.2 159.985 59.9533 159.985 59.7V58.92C159.985 58.6667 159.932 58.42 159.825 58.18C159.732 57.94 159.585 57.7267 159.385 57.54C159.198 57.3533 158.965 57.2067 158.685 57.1C158.405 56.98 158.085 56.92 157.725 56.92C157.365 56.92 157.045 56.98 156.765 57.1C156.485 57.2067 156.245 57.3533 156.045 57.54C155.858 57.7267 155.712 57.94 155.605 58.18C155.512 58.42 155.465 58.6667 155.465 58.92V59.7C155.465 59.9533 155.512 60.2 155.605 60.44C155.712 60.68 155.858 60.8933 156.045 61.08C156.245 61.2667 156.485 61.42 156.765 61.54C157.045 61.6467 157.365 61.7 157.725 61.7ZM159.005 49.42V51.82H163.005V53.96H152.265V51.82H156.445V49.42H159.005ZM185.668 67.88H183.128V49.28H185.668V67.88ZM170.828 62.06C171.828 61.46 172.681 60.9267 173.388 60.46C174.095 59.9933 174.681 59.5667 175.148 59.18C175.628 58.78 176.001 58.4067 176.268 58.06C176.548 57.7 176.755 57.34 176.888 56.98C177.035 56.62 177.128 56.24 177.168 55.84C177.208 55.44 177.228 54.9933 177.228 54.5V53.12H171.168V50.94H179.768V54.62C179.768 55.2867 179.735 55.8933 179.668 56.44C179.601 56.9867 179.468 57.5 179.268 57.98C179.081 58.4467 178.808 58.9 178.448 59.34C178.101 59.78 177.648 60.24 177.088 60.72C176.528 61.1867 175.841 61.6933 175.028 62.24C174.228 62.7733 173.275 63.38 172.168 64.06L170.828 62.06Z" fill="black"/>
<rect x="197" y="28" width="197" height="28" rx="14" transform="rotate(-180 197 28)" fill="#6A5ACD"/>
<path d="M15.9229 11.7889C15.9229 13.6805 16.6973 15.5848 18.2461 16.41L17.5352 17.3622C16.4624 16.7592 15.7324 15.68 15.3389 14.3915C14.9136 15.8007 14.1328 17.0067 13.0283 17.6542L12.2666 16.7782C13.8916 15.826 14.7549 13.8075 14.7549 11.8651V9.74499H15.9229V11.7889ZM22.207 8.70398V20.079H21.0518V14.2137H19.6807V19.5204H18.5254V8.9198H19.6807V13.2362H21.0518V8.70398H22.207ZM33.9218 14.4676V15.4452H23.5116V14.4676H28.12V13.5155H24.8446V10.7479H31.4081V9.85925H24.8192V8.9198H32.6141V11.6366H26.038V12.576H32.8427V13.5155H29.3134V14.4676H33.9218ZM26.0887 15.9657V16.9559H31.4335V15.9657H32.6268V19.9393H24.8827V15.9657H26.0887ZM26.0887 18.9872H31.4335V17.8827H26.0887V18.9872ZM44.405 8.70398V20.079H43.2625V8.70398H44.405ZM42.0056 8.99597V19.5204H40.863V14.2391H38.6414C37.9622 15.5594 36.8831 16.7147 35.2771 17.6542L34.5916 16.7909C37.0037 15.3563 38.1653 13.4457 38.3748 11.1034H35.1248V10.1132H39.5681C39.5618 11.224 39.4094 12.2841 39.0603 13.2743H40.863V8.99597H42.0056ZM59.1382 13.6932V14.5946H54.5552V15.5467H57.8433V18.1112H51.2163V19.0507H58.1607V19.9647H50.0357V17.2733H56.6499V16.4227H50.023V15.5467H53.3618V14.5946H48.7915V13.6932H59.1382ZM54.5552 8.65319V9.65612H58.1099V10.5829H54.6568C54.8853 11.5477 56.4278 12.2206 58.6304 12.3348L58.2622 13.2489C56.2818 13.1092 54.6695 12.5253 53.9585 11.5223C53.2476 12.5253 51.6353 13.1092 49.6421 13.2489L49.2993 12.3348C51.4829 12.2206 53.0191 11.5477 53.273 10.5829H49.8198V9.65612H53.3618V8.65319H54.5552ZM64.0609 11.5985C64.0482 13.6805 65.3051 15.7626 67.0697 16.5497L66.3461 17.5018C65.0385 16.8798 64.0038 15.6039 63.477 14.0487C62.9437 15.7118 61.8964 17.0892 60.5316 17.7557L59.7953 16.7401C61.5854 15.9403 62.8422 13.7694 62.8422 11.5985V9.65612H64.0609V11.5985ZM69.3041 8.70398V20.1044H68.098V8.70398H69.3041ZM77.6165 12.3475V13.3251H75.3948V14.7596C76.4041 14.7152 77.407 14.6454 78.3401 14.5438L78.429 15.4325C76.0042 15.7626 73.3382 15.826 71.2054 15.826L71.0403 14.8612C72.0115 14.8549 73.097 14.8422 74.2014 14.8104V13.3251H72.0559V9.42761H77.5149V10.4051H73.262V12.3475H77.6165ZM80.4221 8.70398V17.2352H79.2161V8.70398H80.4221ZM80.7776 18.8602V19.8378H72.9192V16.6259H74.1253V18.8602H80.7776ZM94.8379 8.71667V15.0516H93.6954V8.71667H94.8379ZM92.7305 8.89441V14.9628H91.5879V12.5887H90.4327V11.6366H91.5879V8.89441H92.7305ZM94.8379 15.5087V18.1239H88.4268V19.0507H95.2315V19.9647H87.2334V17.2733H93.6573V16.41H87.208V15.5087H94.8379ZM90.6993 9.74499V10.6717H85.0752V9.74499H87.2842V8.67859H88.4903V9.74499H90.6993ZM87.8936 11.078C89.2774 11.078 90.2676 11.827 90.2676 12.9696C90.2676 14.0995 89.2774 14.8358 87.8936 14.8231C86.4844 14.8358 85.5069 14.0995 85.5069 12.9696C85.5069 11.827 86.4844 11.078 87.8936 11.078ZM87.8936 11.9413C87.0938 11.9286 86.5606 12.3475 86.5733 12.9696C86.5606 13.5917 87.0938 13.9852 87.8936 13.9852C88.668 13.9852 89.2012 13.5917 89.2012 12.9696C89.2012 12.3475 88.668 11.9286 87.8936 11.9413ZM102.02 10.3163C102.02 12.1698 104.001 13.9217 106.184 14.3153L105.626 15.3182C103.81 14.9247 102.135 13.7313 101.398 12.1317C100.649 13.7186 98.9799 14.912 97.1581 15.3182L96.6249 14.3153C98.7831 13.9091 100.751 12.1698 100.751 10.3163V9.453H102.02V10.3163ZM106.654 17.578V18.5809H96.2441V17.578H106.654ZM112.377 10.0243C112.377 11.1034 112.269 12.1508 111.971 13.1346H113.583V8.99597H114.725V19.5204H113.583V14.1122H111.602C110.968 15.5023 109.869 16.7401 108.073 17.743L107.387 16.9051C109.038 15.9847 110.034 14.8739 110.599 13.6044L107.553 13.9217L107.387 12.8807L110.942 12.6649C111.082 12.1381 111.164 11.5858 111.209 11.0145H107.946V10.0243H112.377ZM117.125 8.70398V20.079H115.982V8.70398H117.125ZM121.54 9.55456C123.082 9.55456 124.212 10.8622 124.396 12.9696H126.745V8.70398H127.938V20.1044H126.745V13.9471H124.409C124.276 16.1625 123.12 17.5399 121.54 17.5399C119.839 17.5399 118.645 15.9911 118.658 13.5409C118.645 11.1034 119.839 9.55456 121.54 9.55456ZM121.54 10.6337C120.511 10.6337 119.8 11.7509 119.8 13.5409C119.8 15.3436 120.511 16.4608 121.54 16.4608C122.568 16.4608 123.279 15.3436 123.279 13.5409C123.279 11.7509 122.568 10.6337 121.54 10.6337ZM136.705 11.5985C136.705 13.6805 137.872 15.7499 139.612 16.537L138.875 17.5018C137.581 16.8544 136.609 15.5658 136.108 14.0106C135.606 15.6483 134.61 17.0321 133.302 17.7176L132.54 16.7401C134.305 15.9022 135.486 13.7059 135.486 11.5985V9.65612H136.705V11.5985ZM142.087 8.70398V20.1044H140.894V13.4647H138.355V12.4872H140.894V8.70398H142.087ZM153.129 8.70398V20.1044H151.923V8.70398H153.129ZM145.55 9.65612V12.576H148.61V9.65612H149.803V17.3749H144.344V9.65612H145.55ZM145.55 16.3846H148.61V13.5282H145.55V16.3846ZM160.591 10.3163C160.591 12.1698 162.571 13.9217 164.755 14.3153L164.196 15.3182C162.381 14.9247 160.705 13.7313 159.969 12.1317C159.22 13.7186 157.55 14.912 155.729 15.3182L155.196 14.3153C157.354 13.9091 159.321 12.1698 159.321 10.3163V9.453H160.591V10.3163ZM165.225 17.578V18.5809H154.815V17.578H165.225ZM168.015 9.80847L167.9 16.3466H166.644L166.529 9.80847H168.015ZM167.278 19.0887C166.783 19.0887 166.364 18.6825 166.377 18.1874C166.364 17.6923 166.783 17.286 167.278 17.286C167.761 17.286 168.18 17.6923 168.18 18.1874C168.18 18.6825 167.761 19.0887 167.278 19.0887Z" fill="white"/>
<path fill-rule="evenodd" clip-rule="evenodd" d="M178.494 19.9999C168.777 15.0081 171.899 9.04624 175.478 8.99987C176.554 8.99987 177.679 9.53351 178.494 10.8399C179.317 9.53351 180.442 8.99987 181.517 8.99987H181.566C185.096 9.04624 188.218 15.0081 178.493 19.9999H178.494Z" fill="white"/>
<path d="M29.6883 36.3397C28.9027 37.5768 27.0973 37.5768 26.3117 36.3397L20.4248 27.0703C19.5792 25.7388 20.5358 23.9981 22.1131 23.9981L33.8869 23.9981C35.4642 23.9981 36.4208 25.7388 35.5752 27.0703L29.6883 36.3397Z" fill="#6A5ACD"/>
</svg>
