<svg width="65" height="32" viewBox="0 0 65 32" fill="none" xmlns="http://www.w3.org/2000/svg">
<path d="M44.42 17.12V22.02H34.68V23.1H44.86V25.08H32.26V20.14H42V19.08H32.16V17.12H44.42ZM32.98 16.36C32.3933 16.36 31.86 16.2933 31.38 16.16C30.9 16.0267 30.4867 15.8467 30.14 15.62C29.7933 15.3933 29.5267 15.12 29.34 14.8C29.1533 14.48 29.06 14.14 29.06 13.78V13.06C29.06 12.7 29.1533 12.36 29.34 12.04C29.5267 11.72 29.7933 11.4467 30.14 11.22C30.4867 10.9933 30.9 10.8133 31.38 10.68C31.86 10.5467 32.3933 10.48 32.98 10.48C33.5667 10.48 34.1 10.5467 34.58 10.68C35.06 10.8133 35.4733 10.9933 35.82 11.22C36.1667 11.4467 36.4333 11.72 36.62 12.04C36.8067 12.36 36.9 12.7 36.9 13.06V13.78C36.9 14.14 36.8067 14.48 36.62 14.8C36.4333 15.12 36.1667 15.3933 35.82 15.62C35.4733 15.8467 35.06 16.0267 34.58 16.16C34.1 16.2933 33.5667 16.36 32.98 16.36ZM38.56 13.34H37.28V11.22H38.56V6.52H40.92V16.24H38.56V13.34ZM44.42 16.28H42.04V6.28H44.42V16.28ZM31.76 7.96V6.08H34.2V7.96H37.16V10H28.46V7.96H31.76ZM32.98 12.3C32.42 12.3 31.9933 12.4 31.7 12.6C31.4067 12.8 31.26 13.0267 31.26 13.28V13.56C31.26 13.8133 31.4067 14.04 31.7 14.24C31.9933 14.44 32.42 14.54 32.98 14.54C33.54 14.54 33.9667 14.44 34.26 14.24C34.5533 14.04 34.7 13.8133 34.7 13.56V13.28C34.7 13.0267 34.5533 12.8 34.26 12.6C33.9667 12.4 33.54 12.3 32.98 12.3ZM63.4231 20.4V22.54H46.3831V20.4H63.4231ZM54.9631 13.66C54.8565 13.8867 54.6298 14.1333 54.2831 14.4C53.9498 14.6533 53.5298 14.9533 53.0231 15.3C52.4765 15.66 51.8431 16.06 51.1231 16.5C50.4031 16.9267 49.5631 17.4133 48.6031 17.96L47.3631 15.96C48.0965 15.5467 48.8365 15.12 49.5831 14.68C50.3298 14.2267 50.9965 13.8 51.5831 13.4C51.9831 13.1333 52.3098 12.8667 52.5631 12.6C52.8298 12.3333 53.0365 12.0533 53.1831 11.76C53.3431 11.4533 53.4565 11.1267 53.5231 10.78C53.5898 10.4333 53.6231 10.04 53.6231 9.6V7.54H56.1831V9.6C56.1831 10.04 56.2165 10.4333 56.2831 10.78C56.3498 11.1267 56.4565 11.4533 56.6031 11.76C56.7631 12.0533 56.9698 12.3333 57.2231 12.6C57.4898 12.8667 57.8231 13.1333 58.2231 13.4C58.8098 13.8 59.4765 14.2267 60.2231 14.68C60.9698 15.12 61.7098 15.5467 62.4431 15.96L61.2231 17.92C60.2631 17.3733 59.4231 16.8867 58.7031 16.46C57.9831 16.02 57.3498 15.62 56.8031 15.26C56.2965 14.9133 55.8898 14.62 55.5831 14.38C55.2898 14.1267 55.0898 13.8867 54.9831 13.66H54.9631Z" fill="#1C1C1C"/>
<path d="M12.0109 9.47549C12.249 9.22738 12.5072 8.93164 12.7929 8.66849C13.3643 8.13968 14.0209 7.7437 14.7427 7.45047C15.5121 7.13719 16.3116 6.97429 17.1361 7.00938C18.4494 7.06201 19.6549 7.43543 20.6975 8.28253C21.4869 8.92412 22.0809 9.70356 22.4217 10.6509C22.5947 11.1296 22.6999 11.6434 22.7576 12.1496C22.9982 14.2949 22.2137 16.1571 21.0834 17.9089C20.4594 18.8738 19.7075 19.7384 18.9055 20.5605C17.3341 22.1695 15.5447 23.4977 13.6751 24.7258C13.1588 25.0641 12.625 25.3799 12.0936 25.6957C12.031 25.7333 11.9082 25.7358 11.8455 25.6982C10.3493 24.816 8.90574 23.8561 7.53484 22.791C6.94337 22.3298 6.38449 21.8261 5.8256 21.3224C4.59756 20.2171 3.52239 18.979 2.64271 17.5781C1.98358 16.5255 1.48985 15.4002 1.24174 14.1796C1.144 13.6985 1.08134 13.1972 1.10139 12.711C1.15152 11.3201 1.57507 10.0594 2.50236 8.98427C3.36199 7.98429 4.4522 7.37278 5.72285 7.11464C6.64263 6.92667 7.57243 6.97429 8.49472 7.22491C9.38943 7.46801 10.1814 7.88405 10.8982 8.45045C11.2816 8.7537 11.62 9.10958 12.0109 9.47298V9.47549ZM10.5273 18.4101C10.442 18.2923 10.3894 18.2272 10.3418 18.157C9.90822 17.5179 9.47214 16.8788 9.04358 16.2347C8.94333 16.0844 8.82052 16.0092 8.63757 16.0092C7.39449 16.0117 6.15141 16.0092 4.90833 16.0142C4.80056 16.0142 4.6552 16.0518 4.59756 16.127C4.52237 16.2247 4.46723 16.3901 4.49731 16.5004C4.54242 16.6708 4.69279 16.7636 4.89329 16.7636C6.00354 16.7585 7.11379 16.7661 8.22405 16.756C8.41953 16.756 8.53482 16.8137 8.64008 16.9741C9.15636 17.756 9.68266 18.5329 10.2065 19.3074C10.3092 19.4577 10.4195 19.5981 10.635 19.578C10.8455 19.5605 10.9207 19.4101 10.9884 19.2472C11.5698 17.8738 12.1488 16.5004 12.7277 15.1295C12.9307 14.6508 13.1337 14.1696 13.3492 13.6634C13.3893 13.736 13.4119 13.7761 13.432 13.8162C13.8856 14.6909 14.3417 15.5606 14.7878 16.4377C14.8981 16.6558 15.0485 16.7636 15.3016 16.761C16.5372 16.7535 17.7727 16.7585 19.0083 16.756C19.3216 16.756 19.4318 16.6583 19.4343 16.3926C19.4368 16.1119 19.3216 16.0067 19.0058 16.0067C18.0509 16.0067 17.096 15.9641 16.1462 16.0217C15.5723 16.0568 15.2916 15.8613 15.061 15.3526C14.645 14.4378 14.1462 13.5581 13.6851 12.6634C13.6049 12.508 13.4846 12.3626 13.3091 12.4053C13.1788 12.4378 13.0184 12.5506 12.9658 12.6684C12.3593 14.0644 11.7728 15.4678 11.1789 16.8688C10.9709 17.3625 10.7603 17.8563 10.5273 18.4051V18.4101Z" fill="#F58220"/>
<path d="M10.5255 18.4093C10.7585 17.8605 10.9691 17.3668 11.1771 16.873C11.771 15.4721 12.3575 14.0686 12.964 12.6726C13.0141 12.5548 13.177 12.4421 13.3074 12.4095C13.4828 12.3669 13.6031 12.5097 13.6833 12.6676C14.1469 13.5623 14.6432 14.442 15.0592 15.3568C15.2898 15.8655 15.5705 16.061 16.1444 16.0259C17.0942 15.9658 18.0516 16.0084 19.004 16.0109C19.3223 16.0109 19.435 16.1162 19.4325 16.3969C19.4325 16.6625 19.3198 16.7603 19.0065 16.7603C17.7709 16.7603 16.5354 16.7578 15.2998 16.7653C15.0442 16.7653 14.8963 16.66 14.786 16.442C14.3399 15.5648 13.8838 14.6926 13.4302 13.8205C13.4101 13.7804 13.385 13.7403 13.3475 13.6676C13.1319 14.1739 12.9289 14.655 12.7259 15.1337C12.147 16.5071 11.5655 17.8805 10.9866 19.2514C10.9189 19.4118 10.8437 19.5622 10.6332 19.5823C10.4152 19.6023 10.3049 19.4595 10.2047 19.3116C9.67836 18.5347 9.15205 17.7602 8.63828 16.9783C8.53302 16.8179 8.41773 16.7578 8.22225 16.7603C7.11199 16.7703 6.00174 16.7628 4.89149 16.7678C4.69099 16.7678 4.53811 16.6776 4.49551 16.5046C4.46794 16.3918 4.52308 16.2264 4.59576 16.1312C4.6534 16.056 4.80127 16.0209 4.90653 16.0184C6.14961 16.0109 7.39269 16.0159 8.63577 16.0134C8.81872 16.0134 8.94153 16.0886 9.04178 16.239C9.47034 16.8831 9.90642 17.5222 10.34 18.1612C10.3876 18.2314 10.4402 18.2966 10.5255 18.4144V18.4093Z" fill="#F58220"/>
<path d="M14.3486 12.8647H14.7369C15.7953 12.8647 16.4281 13.2236 16.6352 13.9412C16.7014 14.1737 16.7344 14.4421 16.7344 14.7464V18.7294H14.3486V12.8647ZM11.1474 12.8647H13.5461V18.7294H11.1474V12.8647ZM7.9375 12.8647H10.3363V18.7294H7.9375V12.8647Z" fill="white"/>
</svg>
